G04 #@! TF.GenerationSoftware,KiCad,Pcbnew,5.0.2-bee76a0~70~ubuntu18.04.1*
G04 #@! TF.CreationDate,2019-06-05T16:51:15+03:00*
G04 #@! TF.ProjectId,mini_DCDC,6d696e69-5f44-4434-9443-2e6b69636164,rev?*
G04 #@! TF.SameCoordinates,Original*
G04 #@! TF.FileFunction,Soldermask,Top*
G04 #@! TF.FilePolarity,Negative*
%FSLAX46Y46*%
G04 Gerber Fmt 4.6, Leading zero omitted, Abs format (unit mm)*
G04 Created by KiCad (PCBNEW 5.0.2-bee76a0~70~ubuntu18.04.1) date Ср 05 июн 2019 16:51:15*
%MOMM*%
%LPD*%
G01*
G04 APERTURE LIST*
%ADD10C,0.200000*%
G04 APERTURE END LIST*
D10*
G36*
X85193786Y-96027746D02*
X85224461Y-96037051D01*
X85252732Y-96052163D01*
X85277506Y-96072494D01*
X85297837Y-96097268D01*
X85312949Y-96125539D01*
X85322254Y-96156214D01*
X85326000Y-96194250D01*
X85326000Y-98205750D01*
X85322254Y-98243786D01*
X85312949Y-98274461D01*
X85297837Y-98302732D01*
X85277506Y-98327506D01*
X85252732Y-98347837D01*
X85224461Y-98362949D01*
X85193786Y-98372254D01*
X85155750Y-98376000D01*
X82844250Y-98376000D01*
X82806214Y-98372254D01*
X82775539Y-98362949D01*
X82747268Y-98347837D01*
X82722494Y-98327506D01*
X82702163Y-98302732D01*
X82687051Y-98274461D01*
X82677746Y-98243786D01*
X82674000Y-98205750D01*
X82674000Y-96194250D01*
X82677746Y-96156214D01*
X82687051Y-96125539D01*
X82702163Y-96097268D01*
X82722494Y-96072494D01*
X82747268Y-96052163D01*
X82775539Y-96037051D01*
X82806214Y-96027746D01*
X82844250Y-96024000D01*
X85155750Y-96024000D01*
X85193786Y-96027746D01*
X85193786Y-96027746D01*
G37*
G36*
X80193786Y-96027746D02*
X80224461Y-96037051D01*
X80252732Y-96052163D01*
X80277506Y-96072494D01*
X80297837Y-96097268D01*
X80312949Y-96125539D01*
X80322254Y-96156214D01*
X80326000Y-96194250D01*
X80326000Y-98205750D01*
X80322254Y-98243786D01*
X80312949Y-98274461D01*
X80297837Y-98302732D01*
X80277506Y-98327506D01*
X80252732Y-98347837D01*
X80224461Y-98362949D01*
X80193786Y-98372254D01*
X80155750Y-98376000D01*
X77844250Y-98376000D01*
X77806214Y-98372254D01*
X77775539Y-98362949D01*
X77747268Y-98347837D01*
X77722494Y-98327506D01*
X77702163Y-98302732D01*
X77687051Y-98274461D01*
X77677746Y-98243786D01*
X77674000Y-98205750D01*
X77674000Y-96194250D01*
X77677746Y-96156214D01*
X77687051Y-96125539D01*
X77702163Y-96097268D01*
X77722494Y-96072494D01*
X77747268Y-96052163D01*
X77775539Y-96037051D01*
X77806214Y-96027746D01*
X77844250Y-96024000D01*
X80155750Y-96024000D01*
X80193786Y-96027746D01*
X80193786Y-96027746D01*
G37*
G36*
X73288677Y-97103465D02*
X73326364Y-97114898D01*
X73361103Y-97133466D01*
X73391548Y-97158452D01*
X73416534Y-97188897D01*
X73435102Y-97223636D01*
X73446535Y-97261323D01*
X73451000Y-97306661D01*
X73451000Y-98143339D01*
X73446535Y-98188677D01*
X73435102Y-98226364D01*
X73416534Y-98261103D01*
X73391548Y-98291548D01*
X73361103Y-98316534D01*
X73326364Y-98335102D01*
X73288677Y-98346535D01*
X73243339Y-98351000D01*
X72156661Y-98351000D01*
X72111323Y-98346535D01*
X72073636Y-98335102D01*
X72038897Y-98316534D01*
X72008452Y-98291548D01*
X71983466Y-98261103D01*
X71964898Y-98226364D01*
X71953465Y-98188677D01*
X71949000Y-98143339D01*
X71949000Y-97306661D01*
X71953465Y-97261323D01*
X71964898Y-97223636D01*
X71983466Y-97188897D01*
X72008452Y-97158452D01*
X72038897Y-97133466D01*
X72073636Y-97114898D01*
X72111323Y-97103465D01*
X72156661Y-97099000D01*
X73243339Y-97099000D01*
X73288677Y-97103465D01*
X73288677Y-97103465D01*
G37*
G36*
X69588677Y-97103465D02*
X69626364Y-97114898D01*
X69661103Y-97133466D01*
X69691548Y-97158452D01*
X69716534Y-97188897D01*
X69735102Y-97223636D01*
X69746535Y-97261323D01*
X69751000Y-97306661D01*
X69751000Y-98143339D01*
X69746535Y-98188677D01*
X69735102Y-98226364D01*
X69716534Y-98261103D01*
X69691548Y-98291548D01*
X69661103Y-98316534D01*
X69626364Y-98335102D01*
X69588677Y-98346535D01*
X69543339Y-98351000D01*
X68456661Y-98351000D01*
X68411323Y-98346535D01*
X68373636Y-98335102D01*
X68338897Y-98316534D01*
X68308452Y-98291548D01*
X68283466Y-98261103D01*
X68264898Y-98226364D01*
X68253465Y-98188677D01*
X68249000Y-98143339D01*
X68249000Y-97306661D01*
X68253465Y-97261323D01*
X68264898Y-97223636D01*
X68283466Y-97188897D01*
X68308452Y-97158452D01*
X68338897Y-97133466D01*
X68373636Y-97114898D01*
X68411323Y-97103465D01*
X68456661Y-97099000D01*
X69543339Y-97099000D01*
X69588677Y-97103465D01*
X69588677Y-97103465D01*
G37*
G36*
X75588677Y-97103465D02*
X75626364Y-97114898D01*
X75661103Y-97133466D01*
X75691548Y-97158452D01*
X75716534Y-97188897D01*
X75735102Y-97223636D01*
X75746535Y-97261323D01*
X75751000Y-97306661D01*
X75751000Y-98143339D01*
X75746535Y-98188677D01*
X75735102Y-98226364D01*
X75716534Y-98261103D01*
X75691548Y-98291548D01*
X75661103Y-98316534D01*
X75626364Y-98335102D01*
X75588677Y-98346535D01*
X75543339Y-98351000D01*
X74456661Y-98351000D01*
X74411323Y-98346535D01*
X74373636Y-98335102D01*
X74338897Y-98316534D01*
X74308452Y-98291548D01*
X74283466Y-98261103D01*
X74264898Y-98226364D01*
X74253465Y-98188677D01*
X74249000Y-98143339D01*
X74249000Y-97306661D01*
X74253465Y-97261323D01*
X74264898Y-97223636D01*
X74283466Y-97188897D01*
X74308452Y-97158452D01*
X74338897Y-97133466D01*
X74373636Y-97114898D01*
X74411323Y-97103465D01*
X74456661Y-97099000D01*
X75543339Y-97099000D01*
X75588677Y-97103465D01*
X75588677Y-97103465D01*
G37*
G36*
X69588677Y-95053465D02*
X69626364Y-95064898D01*
X69661103Y-95083466D01*
X69691548Y-95108452D01*
X69716534Y-95138897D01*
X69735102Y-95173636D01*
X69746535Y-95211323D01*
X69751000Y-95256661D01*
X69751000Y-96093339D01*
X69746535Y-96138677D01*
X69735102Y-96176364D01*
X69716534Y-96211103D01*
X69691548Y-96241548D01*
X69661103Y-96266534D01*
X69626364Y-96285102D01*
X69588677Y-96296535D01*
X69543339Y-96301000D01*
X68456661Y-96301000D01*
X68411323Y-96296535D01*
X68373636Y-96285102D01*
X68338897Y-96266534D01*
X68308452Y-96241548D01*
X68283466Y-96211103D01*
X68264898Y-96176364D01*
X68253465Y-96138677D01*
X68249000Y-96093339D01*
X68249000Y-95256661D01*
X68253465Y-95211323D01*
X68264898Y-95173636D01*
X68283466Y-95138897D01*
X68308452Y-95108452D01*
X68338897Y-95083466D01*
X68373636Y-95064898D01*
X68411323Y-95053465D01*
X68456661Y-95049000D01*
X69543339Y-95049000D01*
X69588677Y-95053465D01*
X69588677Y-95053465D01*
G37*
G36*
X73288677Y-95053465D02*
X73326364Y-95064898D01*
X73361103Y-95083466D01*
X73391548Y-95108452D01*
X73416534Y-95138897D01*
X73435102Y-95173636D01*
X73446535Y-95211323D01*
X73451000Y-95256661D01*
X73451000Y-96093339D01*
X73446535Y-96138677D01*
X73435102Y-96176364D01*
X73416534Y-96211103D01*
X73391548Y-96241548D01*
X73361103Y-96266534D01*
X73326364Y-96285102D01*
X73288677Y-96296535D01*
X73243339Y-96301000D01*
X72156661Y-96301000D01*
X72111323Y-96296535D01*
X72073636Y-96285102D01*
X72038897Y-96266534D01*
X72008452Y-96241548D01*
X71983466Y-96211103D01*
X71964898Y-96176364D01*
X71953465Y-96138677D01*
X71949000Y-96093339D01*
X71949000Y-95256661D01*
X71953465Y-95211323D01*
X71964898Y-95173636D01*
X71983466Y-95138897D01*
X72008452Y-95108452D01*
X72038897Y-95083466D01*
X72073636Y-95064898D01*
X72111323Y-95053465D01*
X72156661Y-95049000D01*
X73243339Y-95049000D01*
X73288677Y-95053465D01*
X73288677Y-95053465D01*
G37*
G36*
X75588677Y-95053465D02*
X75626364Y-95064898D01*
X75661103Y-95083466D01*
X75691548Y-95108452D01*
X75716534Y-95138897D01*
X75735102Y-95173636D01*
X75746535Y-95211323D01*
X75751000Y-95256661D01*
X75751000Y-96093339D01*
X75746535Y-96138677D01*
X75735102Y-96176364D01*
X75716534Y-96211103D01*
X75691548Y-96241548D01*
X75661103Y-96266534D01*
X75626364Y-96285102D01*
X75588677Y-96296535D01*
X75543339Y-96301000D01*
X74456661Y-96301000D01*
X74411323Y-96296535D01*
X74373636Y-96285102D01*
X74338897Y-96266534D01*
X74308452Y-96241548D01*
X74283466Y-96211103D01*
X74264898Y-96176364D01*
X74253465Y-96138677D01*
X74249000Y-96093339D01*
X74249000Y-95256661D01*
X74253465Y-95211323D01*
X74264898Y-95173636D01*
X74283466Y-95138897D01*
X74308452Y-95108452D01*
X74338897Y-95083466D01*
X74373636Y-95064898D01*
X74411323Y-95053465D01*
X74456661Y-95049000D01*
X75543339Y-95049000D01*
X75588677Y-95053465D01*
X75588677Y-95053465D01*
G37*
G36*
X65001000Y-95451000D02*
X62599000Y-95451000D01*
X62599000Y-92849000D01*
X65001000Y-92849000D01*
X65001000Y-95451000D01*
X65001000Y-95451000D01*
G37*
G36*
X68126000Y-94256000D02*
X66474000Y-94256000D01*
X66474000Y-93554000D01*
X68126000Y-93554000D01*
X68126000Y-94256000D01*
X68126000Y-94256000D01*
G37*
G36*
X73526000Y-94256000D02*
X71874000Y-94256000D01*
X71874000Y-93554000D01*
X73526000Y-93554000D01*
X73526000Y-94256000D01*
X73526000Y-94256000D01*
G37*
G36*
X68126000Y-92986000D02*
X66474000Y-92986000D01*
X66474000Y-92284000D01*
X68126000Y-92284000D01*
X68126000Y-92986000D01*
X68126000Y-92986000D01*
G37*
G36*
X73526000Y-92986000D02*
X71874000Y-92986000D01*
X71874000Y-92284000D01*
X73526000Y-92284000D01*
X73526000Y-92986000D01*
X73526000Y-92986000D01*
G37*
G36*
X76088677Y-91703465D02*
X76126364Y-91714898D01*
X76161103Y-91733466D01*
X76191548Y-91758452D01*
X76216534Y-91788897D01*
X76235102Y-91823636D01*
X76246535Y-91861323D01*
X76251000Y-91906661D01*
X76251000Y-92743339D01*
X76246535Y-92788677D01*
X76235102Y-92826364D01*
X76216534Y-92861103D01*
X76191548Y-92891548D01*
X76161103Y-92916534D01*
X76126364Y-92935102D01*
X76088677Y-92946535D01*
X76043339Y-92951000D01*
X74956661Y-92951000D01*
X74911323Y-92946535D01*
X74873636Y-92935102D01*
X74838897Y-92916534D01*
X74808452Y-92891548D01*
X74783466Y-92861103D01*
X74764898Y-92826364D01*
X74753465Y-92788677D01*
X74749000Y-92743339D01*
X74749000Y-91906661D01*
X74753465Y-91861323D01*
X74764898Y-91823636D01*
X74783466Y-91788897D01*
X74808452Y-91758452D01*
X74838897Y-91733466D01*
X74873636Y-91714898D01*
X74911323Y-91703465D01*
X74956661Y-91699000D01*
X76043339Y-91699000D01*
X76088677Y-91703465D01*
X76088677Y-91703465D01*
G37*
G36*
X85193786Y-89627746D02*
X85224461Y-89637051D01*
X85252732Y-89652163D01*
X85277506Y-89672494D01*
X85297837Y-89697268D01*
X85312949Y-89725539D01*
X85322254Y-89756214D01*
X85326000Y-89794250D01*
X85326000Y-91805750D01*
X85322254Y-91843786D01*
X85312949Y-91874461D01*
X85297837Y-91902732D01*
X85277506Y-91927506D01*
X85252732Y-91947837D01*
X85224461Y-91962949D01*
X85193786Y-91972254D01*
X85155750Y-91976000D01*
X82844250Y-91976000D01*
X82806214Y-91972254D01*
X82775539Y-91962949D01*
X82747268Y-91947837D01*
X82722494Y-91927506D01*
X82702163Y-91902732D01*
X82687051Y-91874461D01*
X82677746Y-91843786D01*
X82674000Y-91805750D01*
X82674000Y-89794250D01*
X82677746Y-89756214D01*
X82687051Y-89725539D01*
X82702163Y-89697268D01*
X82722494Y-89672494D01*
X82747268Y-89652163D01*
X82775539Y-89637051D01*
X82806214Y-89627746D01*
X82844250Y-89624000D01*
X85155750Y-89624000D01*
X85193786Y-89627746D01*
X85193786Y-89627746D01*
G37*
G36*
X80193786Y-89627746D02*
X80224461Y-89637051D01*
X80252732Y-89652163D01*
X80277506Y-89672494D01*
X80297837Y-89697268D01*
X80312949Y-89725539D01*
X80322254Y-89756214D01*
X80326000Y-89794250D01*
X80326000Y-91805750D01*
X80322254Y-91843786D01*
X80312949Y-91874461D01*
X80297837Y-91902732D01*
X80277506Y-91927506D01*
X80252732Y-91947837D01*
X80224461Y-91962949D01*
X80193786Y-91972254D01*
X80155750Y-91976000D01*
X77844250Y-91976000D01*
X77806214Y-91972254D01*
X77775539Y-91962949D01*
X77747268Y-91947837D01*
X77722494Y-91927506D01*
X77702163Y-91902732D01*
X77687051Y-91874461D01*
X77677746Y-91843786D01*
X77674000Y-91805750D01*
X77674000Y-89794250D01*
X77677746Y-89756214D01*
X77687051Y-89725539D01*
X77702163Y-89697268D01*
X77722494Y-89672494D01*
X77747268Y-89652163D01*
X77775539Y-89637051D01*
X77806214Y-89627746D01*
X77844250Y-89624000D01*
X80155750Y-89624000D01*
X80193786Y-89627746D01*
X80193786Y-89627746D01*
G37*
G36*
X68126000Y-91716000D02*
X66474000Y-91716000D01*
X66474000Y-91014000D01*
X68126000Y-91014000D01*
X68126000Y-91716000D01*
X68126000Y-91716000D01*
G37*
G36*
X73526000Y-91716000D02*
X71874000Y-91716000D01*
X71874000Y-91014000D01*
X73526000Y-91014000D01*
X73526000Y-91716000D01*
X73526000Y-91716000D01*
G37*
G36*
X65001000Y-91151000D02*
X62599000Y-91151000D01*
X62599000Y-88549000D01*
X65001000Y-88549000D01*
X65001000Y-91151000D01*
X65001000Y-91151000D01*
G37*
G36*
X76088677Y-89653465D02*
X76126364Y-89664898D01*
X76161103Y-89683466D01*
X76191548Y-89708452D01*
X76216534Y-89738897D01*
X76235102Y-89773636D01*
X76246535Y-89811323D01*
X76251000Y-89856661D01*
X76251000Y-90693339D01*
X76246535Y-90738677D01*
X76235102Y-90776364D01*
X76216534Y-90811103D01*
X76191548Y-90841548D01*
X76161103Y-90866534D01*
X76126364Y-90885102D01*
X76088677Y-90896535D01*
X76043339Y-90901000D01*
X74956661Y-90901000D01*
X74911323Y-90896535D01*
X74873636Y-90885102D01*
X74838897Y-90866534D01*
X74808452Y-90841548D01*
X74783466Y-90811103D01*
X74764898Y-90776364D01*
X74753465Y-90738677D01*
X74749000Y-90693339D01*
X74749000Y-89856661D01*
X74753465Y-89811323D01*
X74764898Y-89773636D01*
X74783466Y-89738897D01*
X74808452Y-89708452D01*
X74838897Y-89683466D01*
X74873636Y-89664898D01*
X74911323Y-89653465D01*
X74956661Y-89649000D01*
X76043339Y-89649000D01*
X76088677Y-89653465D01*
X76088677Y-89653465D01*
G37*
G36*
X73526000Y-90446000D02*
X71874000Y-90446000D01*
X71874000Y-89744000D01*
X73526000Y-89744000D01*
X73526000Y-90446000D01*
X73526000Y-90446000D01*
G37*
G36*
X68126000Y-90446000D02*
X66474000Y-90446000D01*
X66474000Y-89744000D01*
X68126000Y-89744000D01*
X68126000Y-90446000D01*
X68126000Y-90446000D01*
G37*
G36*
X53051000Y-90211000D02*
X50949000Y-90211000D01*
X50949000Y-88109000D01*
X53051000Y-88109000D01*
X53051000Y-90211000D01*
X53051000Y-90211000D01*
G37*
G36*
X89051000Y-90211000D02*
X86949000Y-90211000D01*
X86949000Y-88109000D01*
X89051000Y-88109000D01*
X89051000Y-90211000D01*
X89051000Y-90211000D01*
G37*
G36*
X52775562Y-86028181D02*
X52810477Y-86038773D01*
X52842665Y-86055978D01*
X52870873Y-86079127D01*
X52894022Y-86107335D01*
X52911227Y-86139523D01*
X52921819Y-86174438D01*
X52926000Y-86216895D01*
X52926000Y-87358105D01*
X52921819Y-87400562D01*
X52911227Y-87435477D01*
X52894022Y-87467665D01*
X52870873Y-87495873D01*
X52842665Y-87519022D01*
X52810477Y-87536227D01*
X52775562Y-87546819D01*
X52733105Y-87551000D01*
X51266895Y-87551000D01*
X51224438Y-87546819D01*
X51189523Y-87536227D01*
X51157335Y-87519022D01*
X51129127Y-87495873D01*
X51105978Y-87467665D01*
X51088773Y-87435477D01*
X51078181Y-87400562D01*
X51074000Y-87358105D01*
X51074000Y-86216895D01*
X51078181Y-86174438D01*
X51088773Y-86139523D01*
X51105978Y-86107335D01*
X51129127Y-86079127D01*
X51157335Y-86055978D01*
X51189523Y-86038773D01*
X51224438Y-86028181D01*
X51266895Y-86024000D01*
X52733105Y-86024000D01*
X52775562Y-86028181D01*
X52775562Y-86028181D01*
G37*
G36*
X85588677Y-84603465D02*
X85626364Y-84614898D01*
X85661103Y-84633466D01*
X85691548Y-84658452D01*
X85716534Y-84688897D01*
X85735102Y-84723636D01*
X85746535Y-84761323D01*
X85751000Y-84806661D01*
X85751000Y-85643339D01*
X85746535Y-85688677D01*
X85735102Y-85726364D01*
X85716534Y-85761103D01*
X85691548Y-85791548D01*
X85661103Y-85816534D01*
X85626364Y-85835102D01*
X85588677Y-85846535D01*
X85543339Y-85851000D01*
X84456661Y-85851000D01*
X84411323Y-85846535D01*
X84373636Y-85835102D01*
X84338897Y-85816534D01*
X84308452Y-85791548D01*
X84283466Y-85761103D01*
X84264898Y-85726364D01*
X84253465Y-85688677D01*
X84249000Y-85643339D01*
X84249000Y-84806661D01*
X84253465Y-84761323D01*
X84264898Y-84723636D01*
X84283466Y-84688897D01*
X84308452Y-84658452D01*
X84338897Y-84633466D01*
X84373636Y-84614898D01*
X84411323Y-84603465D01*
X84456661Y-84599000D01*
X85543339Y-84599000D01*
X85588677Y-84603465D01*
X85588677Y-84603465D01*
G37*
G36*
X52775562Y-83053181D02*
X52810477Y-83063773D01*
X52842665Y-83080978D01*
X52870873Y-83104127D01*
X52894022Y-83132335D01*
X52911227Y-83164523D01*
X52921819Y-83199438D01*
X52926000Y-83241895D01*
X52926000Y-84383105D01*
X52921819Y-84425562D01*
X52911227Y-84460477D01*
X52894022Y-84492665D01*
X52870873Y-84520873D01*
X52842665Y-84544022D01*
X52810477Y-84561227D01*
X52775562Y-84571819D01*
X52733105Y-84576000D01*
X51266895Y-84576000D01*
X51224438Y-84571819D01*
X51189523Y-84561227D01*
X51157335Y-84544022D01*
X51129127Y-84520873D01*
X51105978Y-84492665D01*
X51088773Y-84460477D01*
X51078181Y-84425562D01*
X51074000Y-84383105D01*
X51074000Y-83241895D01*
X51078181Y-83199438D01*
X51088773Y-83164523D01*
X51105978Y-83132335D01*
X51129127Y-83104127D01*
X51157335Y-83080978D01*
X51189523Y-83063773D01*
X51224438Y-83053181D01*
X51266895Y-83049000D01*
X52733105Y-83049000D01*
X52775562Y-83053181D01*
X52775562Y-83053181D01*
G37*
G36*
X79050000Y-84550000D02*
X74950000Y-84550000D01*
X74950000Y-77450000D01*
X79050000Y-77450000D01*
X79050000Y-84550000D01*
X79050000Y-84550000D01*
G37*
G36*
X69050000Y-84550000D02*
X64950000Y-84550000D01*
X64950000Y-77450000D01*
X69050000Y-77450000D01*
X69050000Y-84550000D01*
X69050000Y-84550000D01*
G37*
G36*
X58193786Y-82027746D02*
X58224461Y-82037051D01*
X58252732Y-82052163D01*
X58277506Y-82072494D01*
X58297837Y-82097268D01*
X58312949Y-82125539D01*
X58322254Y-82156214D01*
X58326000Y-82194250D01*
X58326000Y-84205750D01*
X58322254Y-84243786D01*
X58312949Y-84274461D01*
X58297837Y-84302732D01*
X58277506Y-84327506D01*
X58252732Y-84347837D01*
X58224461Y-84362949D01*
X58193786Y-84372254D01*
X58155750Y-84376000D01*
X55844250Y-84376000D01*
X55806214Y-84372254D01*
X55775539Y-84362949D01*
X55747268Y-84347837D01*
X55722494Y-84327506D01*
X55702163Y-84302732D01*
X55687051Y-84274461D01*
X55677746Y-84243786D01*
X55674000Y-84205750D01*
X55674000Y-82194250D01*
X55677746Y-82156214D01*
X55687051Y-82125539D01*
X55702163Y-82097268D01*
X55722494Y-82072494D01*
X55747268Y-82052163D01*
X55775539Y-82037051D01*
X55806214Y-82027746D01*
X55844250Y-82024000D01*
X58155750Y-82024000D01*
X58193786Y-82027746D01*
X58193786Y-82027746D01*
G37*
G36*
X63193786Y-82027746D02*
X63224461Y-82037051D01*
X63252732Y-82052163D01*
X63277506Y-82072494D01*
X63297837Y-82097268D01*
X63312949Y-82125539D01*
X63322254Y-82156214D01*
X63326000Y-82194250D01*
X63326000Y-84205750D01*
X63322254Y-84243786D01*
X63312949Y-84274461D01*
X63297837Y-84302732D01*
X63277506Y-84327506D01*
X63252732Y-84347837D01*
X63224461Y-84362949D01*
X63193786Y-84372254D01*
X63155750Y-84376000D01*
X60844250Y-84376000D01*
X60806214Y-84372254D01*
X60775539Y-84362949D01*
X60747268Y-84347837D01*
X60722494Y-84327506D01*
X60702163Y-84302732D01*
X60687051Y-84274461D01*
X60677746Y-84243786D01*
X60674000Y-84205750D01*
X60674000Y-82194250D01*
X60677746Y-82156214D01*
X60687051Y-82125539D01*
X60702163Y-82097268D01*
X60722494Y-82072494D01*
X60747268Y-82052163D01*
X60775539Y-82037051D01*
X60806214Y-82027746D01*
X60844250Y-82024000D01*
X63155750Y-82024000D01*
X63193786Y-82027746D01*
X63193786Y-82027746D01*
G37*
G36*
X85588677Y-82553465D02*
X85626364Y-82564898D01*
X85661103Y-82583466D01*
X85691548Y-82608452D01*
X85716534Y-82638897D01*
X85735102Y-82673636D01*
X85746535Y-82711323D01*
X85751000Y-82756661D01*
X85751000Y-83593339D01*
X85746535Y-83638677D01*
X85735102Y-83676364D01*
X85716534Y-83711103D01*
X85691548Y-83741548D01*
X85661103Y-83766534D01*
X85626364Y-83785102D01*
X85588677Y-83796535D01*
X85543339Y-83801000D01*
X84456661Y-83801000D01*
X84411323Y-83796535D01*
X84373636Y-83785102D01*
X84338897Y-83766534D01*
X84308452Y-83741548D01*
X84283466Y-83711103D01*
X84264898Y-83676364D01*
X84253465Y-83638677D01*
X84249000Y-83593339D01*
X84249000Y-82756661D01*
X84253465Y-82711323D01*
X84264898Y-82673636D01*
X84283466Y-82638897D01*
X84308452Y-82608452D01*
X84338897Y-82583466D01*
X84373636Y-82564898D01*
X84411323Y-82553465D01*
X84456661Y-82549000D01*
X85543339Y-82549000D01*
X85588677Y-82553465D01*
X85588677Y-82553465D01*
G37*
G36*
X89051000Y-82591000D02*
X86949000Y-82591000D01*
X86949000Y-80489000D01*
X89051000Y-80489000D01*
X89051000Y-82591000D01*
X89051000Y-82591000D01*
G37*
G36*
X53051000Y-82591000D02*
X50949000Y-82591000D01*
X50949000Y-80489000D01*
X53051000Y-80489000D01*
X53051000Y-82591000D01*
X53051000Y-82591000D01*
G37*
G36*
X85588677Y-80403465D02*
X85626364Y-80414898D01*
X85661103Y-80433466D01*
X85691548Y-80458452D01*
X85716534Y-80488897D01*
X85735102Y-80523636D01*
X85746535Y-80561323D01*
X85751000Y-80606661D01*
X85751000Y-81443339D01*
X85746535Y-81488677D01*
X85735102Y-81526364D01*
X85716534Y-81561103D01*
X85691548Y-81591548D01*
X85661103Y-81616534D01*
X85626364Y-81635102D01*
X85588677Y-81646535D01*
X85543339Y-81651000D01*
X84456661Y-81651000D01*
X84411323Y-81646535D01*
X84373636Y-81635102D01*
X84338897Y-81616534D01*
X84308452Y-81591548D01*
X84283466Y-81561103D01*
X84264898Y-81526364D01*
X84253465Y-81488677D01*
X84249000Y-81443339D01*
X84249000Y-80606661D01*
X84253465Y-80561323D01*
X84264898Y-80523636D01*
X84283466Y-80488897D01*
X84308452Y-80458452D01*
X84338897Y-80433466D01*
X84373636Y-80414898D01*
X84411323Y-80403465D01*
X84456661Y-80399000D01*
X85543339Y-80399000D01*
X85588677Y-80403465D01*
X85588677Y-80403465D01*
G37*
G36*
X89051000Y-80051000D02*
X86949000Y-80051000D01*
X86949000Y-77949000D01*
X89051000Y-77949000D01*
X89051000Y-80051000D01*
X89051000Y-80051000D01*
G37*
G36*
X85588677Y-78353465D02*
X85626364Y-78364898D01*
X85661103Y-78383466D01*
X85691548Y-78408452D01*
X85716534Y-78438897D01*
X85735102Y-78473636D01*
X85746535Y-78511323D01*
X85751000Y-78556661D01*
X85751000Y-79393339D01*
X85746535Y-79438677D01*
X85735102Y-79476364D01*
X85716534Y-79511103D01*
X85691548Y-79541548D01*
X85661103Y-79566534D01*
X85626364Y-79585102D01*
X85588677Y-79596535D01*
X85543339Y-79601000D01*
X84456661Y-79601000D01*
X84411323Y-79596535D01*
X84373636Y-79585102D01*
X84338897Y-79566534D01*
X84308452Y-79541548D01*
X84283466Y-79511103D01*
X84264898Y-79476364D01*
X84253465Y-79438677D01*
X84249000Y-79393339D01*
X84249000Y-78556661D01*
X84253465Y-78511323D01*
X84264898Y-78473636D01*
X84283466Y-78438897D01*
X84308452Y-78408452D01*
X84338897Y-78383466D01*
X84373636Y-78364898D01*
X84411323Y-78353465D01*
X84456661Y-78349000D01*
X85543339Y-78349000D01*
X85588677Y-78353465D01*
X85588677Y-78353465D01*
G37*
G36*
X63193786Y-75627746D02*
X63224461Y-75637051D01*
X63252732Y-75652163D01*
X63277506Y-75672494D01*
X63297837Y-75697268D01*
X63312949Y-75725539D01*
X63322254Y-75756214D01*
X63326000Y-75794250D01*
X63326000Y-77805750D01*
X63322254Y-77843786D01*
X63312949Y-77874461D01*
X63297837Y-77902732D01*
X63277506Y-77927506D01*
X63252732Y-77947837D01*
X63224461Y-77962949D01*
X63193786Y-77972254D01*
X63155750Y-77976000D01*
X60844250Y-77976000D01*
X60806214Y-77972254D01*
X60775539Y-77962949D01*
X60747268Y-77947837D01*
X60722494Y-77927506D01*
X60702163Y-77902732D01*
X60687051Y-77874461D01*
X60677746Y-77843786D01*
X60674000Y-77805750D01*
X60674000Y-75794250D01*
X60677746Y-75756214D01*
X60687051Y-75725539D01*
X60702163Y-75697268D01*
X60722494Y-75672494D01*
X60747268Y-75652163D01*
X60775539Y-75637051D01*
X60806214Y-75627746D01*
X60844250Y-75624000D01*
X63155750Y-75624000D01*
X63193786Y-75627746D01*
X63193786Y-75627746D01*
G37*
G36*
X58193786Y-75627746D02*
X58224461Y-75637051D01*
X58252732Y-75652163D01*
X58277506Y-75672494D01*
X58297837Y-75697268D01*
X58312949Y-75725539D01*
X58322254Y-75756214D01*
X58326000Y-75794250D01*
X58326000Y-77805750D01*
X58322254Y-77843786D01*
X58312949Y-77874461D01*
X58297837Y-77902732D01*
X58277506Y-77927506D01*
X58252732Y-77947837D01*
X58224461Y-77962949D01*
X58193786Y-77972254D01*
X58155750Y-77976000D01*
X55844250Y-77976000D01*
X55806214Y-77972254D01*
X55775539Y-77962949D01*
X55747268Y-77947837D01*
X55722494Y-77927506D01*
X55702163Y-77902732D01*
X55687051Y-77874461D01*
X55677746Y-77843786D01*
X55674000Y-77805750D01*
X55674000Y-75794250D01*
X55677746Y-75756214D01*
X55687051Y-75725539D01*
X55702163Y-75697268D01*
X55722494Y-75672494D01*
X55747268Y-75652163D01*
X55775539Y-75637051D01*
X55806214Y-75627746D01*
X55844250Y-75624000D01*
X58155750Y-75624000D01*
X58193786Y-75627746D01*
X58193786Y-75627746D01*
G37*
M02*
