G04 #@! TF.GenerationSoftware,KiCad,Pcbnew,5.0.2-bee76a0~70~ubuntu18.04.1*
G04 #@! TF.CreationDate,2019-06-05T16:51:15+03:00*
G04 #@! TF.ProjectId,mini_DCDC,6d696e69-5f44-4434-9443-2e6b69636164,rev?*
G04 #@! TF.SameCoordinates,Original*
G04 #@! TF.FileFunction,Legend,Top*
G04 #@! TF.FilePolarity,Positive*
%FSLAX46Y46*%
G04 Gerber Fmt 4.6, Leading zero omitted, Abs format (unit mm)*
G04 Created by KiCad (PCBNEW 5.0.2-bee76a0~70~ubuntu18.04.1) date Ср 05 июн 2019 16:51:15*
%MOMM*%
%LPD*%
G01*
G04 APERTURE LIST*
%ADD10C,0.300000*%
%ADD11C,0.120000*%
%ADD12C,0.150000*%
G04 APERTURE END LIST*
D10*
X51178571Y-79385714D02*
X52678571Y-78885714D01*
X51178571Y-78385714D01*
X52678571Y-77671428D02*
X52607142Y-77814285D01*
X52535714Y-77885714D01*
X52392857Y-77957142D01*
X51964285Y-77957142D01*
X51821428Y-77885714D01*
X51750000Y-77814285D01*
X51678571Y-77671428D01*
X51678571Y-77457142D01*
X51750000Y-77314285D01*
X51821428Y-77242857D01*
X51964285Y-77171428D01*
X52392857Y-77171428D01*
X52535714Y-77242857D01*
X52607142Y-77314285D01*
X52678571Y-77457142D01*
X52678571Y-77671428D01*
X51678571Y-75885714D02*
X52678571Y-75885714D01*
X51678571Y-76528571D02*
X52464285Y-76528571D01*
X52607142Y-76457142D01*
X52678571Y-76314285D01*
X52678571Y-76100000D01*
X52607142Y-75957142D01*
X52535714Y-75885714D01*
X51678571Y-75385714D02*
X51678571Y-74814285D01*
X51178571Y-75171428D02*
X52464285Y-75171428D01*
X52607142Y-75100000D01*
X52678571Y-74957142D01*
X52678571Y-74814285D01*
X51250000Y-95942857D02*
X51178571Y-96085714D01*
X51178571Y-96300000D01*
X51250000Y-96514285D01*
X51392857Y-96657142D01*
X51535714Y-96728571D01*
X51821428Y-96800000D01*
X52035714Y-96800000D01*
X52321428Y-96728571D01*
X52464285Y-96657142D01*
X52607142Y-96514285D01*
X52678571Y-96300000D01*
X52678571Y-96157142D01*
X52607142Y-95942857D01*
X52535714Y-95871428D01*
X52035714Y-95871428D01*
X52035714Y-96157142D01*
X52678571Y-95228571D02*
X51178571Y-95228571D01*
X52678571Y-94371428D01*
X51178571Y-94371428D01*
X52678571Y-93657142D02*
X51178571Y-93657142D01*
X51178571Y-93300000D01*
X51250000Y-93085714D01*
X51392857Y-92942857D01*
X51535714Y-92871428D01*
X51821428Y-92800000D01*
X52035714Y-92800000D01*
X52321428Y-92871428D01*
X52464285Y-92942857D01*
X52607142Y-93085714D01*
X52678571Y-93300000D01*
X52678571Y-93657142D01*
X87250000Y-94542857D02*
X87178571Y-94685714D01*
X87178571Y-94900000D01*
X87250000Y-95114285D01*
X87392857Y-95257142D01*
X87535714Y-95328571D01*
X87821428Y-95400000D01*
X88035714Y-95400000D01*
X88321428Y-95328571D01*
X88464285Y-95257142D01*
X88607142Y-95114285D01*
X88678571Y-94900000D01*
X88678571Y-94757142D01*
X88607142Y-94542857D01*
X88535714Y-94471428D01*
X88035714Y-94471428D01*
X88035714Y-94757142D01*
X88678571Y-93828571D02*
X87178571Y-93828571D01*
X88678571Y-92971428D01*
X87178571Y-92971428D01*
X88678571Y-92257142D02*
X87178571Y-92257142D01*
X87178571Y-91900000D01*
X87250000Y-91685714D01*
X87392857Y-91542857D01*
X87535714Y-91471428D01*
X87821428Y-91400000D01*
X88035714Y-91400000D01*
X88321428Y-91471428D01*
X88464285Y-91542857D01*
X88607142Y-91685714D01*
X88678571Y-91900000D01*
X88678571Y-92257142D01*
X86064285Y-75178571D02*
X86564285Y-76678571D01*
X87064285Y-75178571D01*
X87564285Y-76678571D02*
X87564285Y-75678571D01*
X87564285Y-75178571D02*
X87492857Y-75250000D01*
X87564285Y-75321428D01*
X87635714Y-75250000D01*
X87564285Y-75178571D01*
X87564285Y-75321428D01*
X88278571Y-75678571D02*
X88278571Y-76678571D01*
X88278571Y-75821428D02*
X88350000Y-75750000D01*
X88492857Y-75678571D01*
X88707142Y-75678571D01*
X88850000Y-75750000D01*
X88921428Y-75892857D01*
X88921428Y-76678571D01*
D11*
G04 #@! TO.C,C3*
X69710000Y-96438748D02*
X69710000Y-96961252D01*
X68290000Y-96438748D02*
X68290000Y-96961252D01*
G04 #@! TO.C,C6*
X52910000Y-84697936D02*
X52910000Y-85902064D01*
X51090000Y-84697936D02*
X51090000Y-85902064D01*
G04 #@! TO.C,C1*
X76740000Y-89415000D02*
X76740000Y-97650000D01*
X81260000Y-89415000D02*
X76740000Y-89415000D01*
X81260000Y-97650000D02*
X81260000Y-89415000D01*
G04 #@! TO.C,C2*
X86260000Y-97650000D02*
X86260000Y-89415000D01*
X86260000Y-89415000D02*
X81740000Y-89415000D01*
X81740000Y-89415000D02*
X81740000Y-97650000D01*
G04 #@! TO.C,C4*
X59740000Y-75415000D02*
X59740000Y-83650000D01*
X64260000Y-75415000D02*
X59740000Y-75415000D01*
X64260000Y-83650000D02*
X64260000Y-75415000D01*
G04 #@! TO.C,C5*
X59260000Y-83650000D02*
X59260000Y-75415000D01*
X59260000Y-75415000D02*
X54740000Y-75415000D01*
X54740000Y-75415000D02*
X54740000Y-83650000D01*
G04 #@! TO.C,D1*
X65950000Y-88450000D02*
X61650000Y-88450000D01*
X61650000Y-88450000D02*
X61650000Y-94150000D01*
X65950000Y-88450000D02*
X65950000Y-94150000D01*
D12*
G04 #@! TO.C,U1*
X67925000Y-89425000D02*
X67925000Y-89475000D01*
X72075000Y-89425000D02*
X72075000Y-89570000D01*
X72075000Y-94575000D02*
X72075000Y-94430000D01*
X67925000Y-94575000D02*
X67925000Y-94430000D01*
X67925000Y-89425000D02*
X72075000Y-89425000D01*
X67925000Y-94575000D02*
X72075000Y-94575000D01*
X67925000Y-89475000D02*
X66525000Y-89475000D01*
D11*
G04 #@! TO.C,R5*
X75710000Y-96438748D02*
X75710000Y-96961252D01*
X74290000Y-96438748D02*
X74290000Y-96961252D01*
G04 #@! TO.C,R4*
X84290000Y-83938748D02*
X84290000Y-84461252D01*
X85710000Y-83938748D02*
X85710000Y-84461252D01*
G04 #@! TO.C,R3*
X71990000Y-96961252D02*
X71990000Y-96438748D01*
X73410000Y-96961252D02*
X73410000Y-96438748D01*
G04 #@! TO.C,R1*
X76210000Y-91561252D02*
X76210000Y-91038748D01*
X74790000Y-91561252D02*
X74790000Y-91038748D01*
G04 #@! TO.C,R2*
X85710000Y-79738748D02*
X85710000Y-80261252D01*
X84290000Y-79738748D02*
X84290000Y-80261252D01*
G04 #@! TO.C,J5*
X50800000Y-87960000D02*
X53200000Y-87960000D01*
X53200000Y-87960000D02*
X53200000Y-90360000D01*
X53200000Y-90360000D02*
X50800000Y-90360000D01*
X50800000Y-90360000D02*
X50800000Y-87960000D01*
G04 #@! TO.C,J4*
X86800000Y-90360000D02*
X86800000Y-87960000D01*
X89200000Y-90360000D02*
X86800000Y-90360000D01*
X89200000Y-87960000D02*
X89200000Y-90360000D01*
X86800000Y-87960000D02*
X89200000Y-87960000D01*
G04 #@! TO.C,J3*
X86800000Y-80340000D02*
X89200000Y-80340000D01*
X89200000Y-80340000D02*
X89200000Y-82740000D01*
X89200000Y-82740000D02*
X86800000Y-82740000D01*
X86800000Y-82740000D02*
X86800000Y-80340000D01*
G04 #@! TO.C,J2*
X50800000Y-82740000D02*
X50800000Y-80340000D01*
X53200000Y-82740000D02*
X50800000Y-82740000D01*
X53200000Y-80340000D02*
X53200000Y-82740000D01*
X50800000Y-80340000D02*
X53200000Y-80340000D01*
G04 #@! TO.C,J1*
X86800000Y-77800000D02*
X89200000Y-77800000D01*
X89200000Y-77800000D02*
X89200000Y-80200000D01*
X89200000Y-80200000D02*
X86800000Y-80200000D01*
X86800000Y-80200000D02*
X86800000Y-77800000D01*
D12*
G04 #@! TO.C,L1*
X77000000Y-87000000D02*
X67000000Y-87000000D01*
X67000000Y-87000000D02*
X67000000Y-85000000D01*
X77000000Y-87000000D02*
X77000000Y-85000000D01*
X77000000Y-77000000D02*
X77000000Y-75000000D01*
X77000000Y-75000000D02*
X67000000Y-75000000D01*
X67000000Y-75000000D02*
X67000000Y-77000000D01*
G04 #@! TO.C,C3*
X67857142Y-96866666D02*
X67904761Y-96914285D01*
X67952380Y-97057142D01*
X67952380Y-97152380D01*
X67904761Y-97295238D01*
X67809523Y-97390476D01*
X67714285Y-97438095D01*
X67523809Y-97485714D01*
X67380952Y-97485714D01*
X67190476Y-97438095D01*
X67095238Y-97390476D01*
X67000000Y-97295238D01*
X66952380Y-97152380D01*
X66952380Y-97057142D01*
X67000000Y-96914285D01*
X67047619Y-96866666D01*
X66952380Y-96533333D02*
X66952380Y-95914285D01*
X67333333Y-96247619D01*
X67333333Y-96104761D01*
X67380952Y-96009523D01*
X67428571Y-95961904D01*
X67523809Y-95914285D01*
X67761904Y-95914285D01*
X67857142Y-95961904D01*
X67904761Y-96009523D01*
X67952380Y-96104761D01*
X67952380Y-96390476D01*
X67904761Y-96485714D01*
X67857142Y-96533333D01*
G04 #@! TO.C,C6*
X54157142Y-85466666D02*
X54204761Y-85514285D01*
X54252380Y-85657142D01*
X54252380Y-85752380D01*
X54204761Y-85895238D01*
X54109523Y-85990476D01*
X54014285Y-86038095D01*
X53823809Y-86085714D01*
X53680952Y-86085714D01*
X53490476Y-86038095D01*
X53395238Y-85990476D01*
X53300000Y-85895238D01*
X53252380Y-85752380D01*
X53252380Y-85657142D01*
X53300000Y-85514285D01*
X53347619Y-85466666D01*
X53252380Y-84609523D02*
X53252380Y-84800000D01*
X53300000Y-84895238D01*
X53347619Y-84942857D01*
X53490476Y-85038095D01*
X53680952Y-85085714D01*
X54061904Y-85085714D01*
X54157142Y-85038095D01*
X54204761Y-84990476D01*
X54252380Y-84895238D01*
X54252380Y-84704761D01*
X54204761Y-84609523D01*
X54157142Y-84561904D01*
X54061904Y-84514285D01*
X53823809Y-84514285D01*
X53728571Y-84561904D01*
X53680952Y-84609523D01*
X53633333Y-84704761D01*
X53633333Y-84895238D01*
X53680952Y-84990476D01*
X53728571Y-85038095D01*
X53823809Y-85085714D01*
G04 #@! TO.C,C1*
X78833333Y-89057142D02*
X78785714Y-89104761D01*
X78642857Y-89152380D01*
X78547619Y-89152380D01*
X78404761Y-89104761D01*
X78309523Y-89009523D01*
X78261904Y-88914285D01*
X78214285Y-88723809D01*
X78214285Y-88580952D01*
X78261904Y-88390476D01*
X78309523Y-88295238D01*
X78404761Y-88200000D01*
X78547619Y-88152380D01*
X78642857Y-88152380D01*
X78785714Y-88200000D01*
X78833333Y-88247619D01*
X79785714Y-89152380D02*
X79214285Y-89152380D01*
X79500000Y-89152380D02*
X79500000Y-88152380D01*
X79404761Y-88295238D01*
X79309523Y-88390476D01*
X79214285Y-88438095D01*
G04 #@! TO.C,C2*
X83833333Y-89057142D02*
X83785714Y-89104761D01*
X83642857Y-89152380D01*
X83547619Y-89152380D01*
X83404761Y-89104761D01*
X83309523Y-89009523D01*
X83261904Y-88914285D01*
X83214285Y-88723809D01*
X83214285Y-88580952D01*
X83261904Y-88390476D01*
X83309523Y-88295238D01*
X83404761Y-88200000D01*
X83547619Y-88152380D01*
X83642857Y-88152380D01*
X83785714Y-88200000D01*
X83833333Y-88247619D01*
X84214285Y-88247619D02*
X84261904Y-88200000D01*
X84357142Y-88152380D01*
X84595238Y-88152380D01*
X84690476Y-88200000D01*
X84738095Y-88247619D01*
X84785714Y-88342857D01*
X84785714Y-88438095D01*
X84738095Y-88580952D01*
X84166666Y-89152380D01*
X84785714Y-89152380D01*
G04 #@! TO.C,C4*
X62357142Y-86166666D02*
X62404761Y-86214285D01*
X62452380Y-86357142D01*
X62452380Y-86452380D01*
X62404761Y-86595238D01*
X62309523Y-86690476D01*
X62214285Y-86738095D01*
X62023809Y-86785714D01*
X61880952Y-86785714D01*
X61690476Y-86738095D01*
X61595238Y-86690476D01*
X61500000Y-86595238D01*
X61452380Y-86452380D01*
X61452380Y-86357142D01*
X61500000Y-86214285D01*
X61547619Y-86166666D01*
X61785714Y-85309523D02*
X62452380Y-85309523D01*
X61404761Y-85547619D02*
X62119047Y-85785714D01*
X62119047Y-85166666D01*
G04 #@! TO.C,C5*
X57357142Y-86166666D02*
X57404761Y-86214285D01*
X57452380Y-86357142D01*
X57452380Y-86452380D01*
X57404761Y-86595238D01*
X57309523Y-86690476D01*
X57214285Y-86738095D01*
X57023809Y-86785714D01*
X56880952Y-86785714D01*
X56690476Y-86738095D01*
X56595238Y-86690476D01*
X56500000Y-86595238D01*
X56452380Y-86452380D01*
X56452380Y-86357142D01*
X56500000Y-86214285D01*
X56547619Y-86166666D01*
X56452380Y-85261904D02*
X56452380Y-85738095D01*
X56928571Y-85785714D01*
X56880952Y-85738095D01*
X56833333Y-85642857D01*
X56833333Y-85404761D01*
X56880952Y-85309523D01*
X56928571Y-85261904D01*
X57023809Y-85214285D01*
X57261904Y-85214285D01*
X57357142Y-85261904D01*
X57404761Y-85309523D01*
X57452380Y-85404761D01*
X57452380Y-85642857D01*
X57404761Y-85738095D01*
X57357142Y-85785714D01*
G04 #@! TO.C,D1*
X61352380Y-95738095D02*
X60352380Y-95738095D01*
X60352380Y-95500000D01*
X60400000Y-95357142D01*
X60495238Y-95261904D01*
X60590476Y-95214285D01*
X60780952Y-95166666D01*
X60923809Y-95166666D01*
X61114285Y-95214285D01*
X61209523Y-95261904D01*
X61304761Y-95357142D01*
X61352380Y-95500000D01*
X61352380Y-95738095D01*
X61352380Y-94214285D02*
X61352380Y-94785714D01*
X61352380Y-94500000D02*
X60352380Y-94500000D01*
X60495238Y-94595238D01*
X60590476Y-94690476D01*
X60638095Y-94785714D01*
G04 #@! TO.C,U1*
X69238095Y-87952380D02*
X69238095Y-88761904D01*
X69285714Y-88857142D01*
X69333333Y-88904761D01*
X69428571Y-88952380D01*
X69619047Y-88952380D01*
X69714285Y-88904761D01*
X69761904Y-88857142D01*
X69809523Y-88761904D01*
X69809523Y-87952380D01*
X70809523Y-88952380D02*
X70238095Y-88952380D01*
X70523809Y-88952380D02*
X70523809Y-87952380D01*
X70428571Y-88095238D01*
X70333333Y-88190476D01*
X70238095Y-88238095D01*
G04 #@! TO.C,R5*
X74833333Y-94652380D02*
X74500000Y-94176190D01*
X74261904Y-94652380D02*
X74261904Y-93652380D01*
X74642857Y-93652380D01*
X74738095Y-93700000D01*
X74785714Y-93747619D01*
X74833333Y-93842857D01*
X74833333Y-93985714D01*
X74785714Y-94080952D01*
X74738095Y-94128571D01*
X74642857Y-94176190D01*
X74261904Y-94176190D01*
X75738095Y-93652380D02*
X75261904Y-93652380D01*
X75214285Y-94128571D01*
X75261904Y-94080952D01*
X75357142Y-94033333D01*
X75595238Y-94033333D01*
X75690476Y-94080952D01*
X75738095Y-94128571D01*
X75785714Y-94223809D01*
X75785714Y-94461904D01*
X75738095Y-94557142D01*
X75690476Y-94604761D01*
X75595238Y-94652380D01*
X75357142Y-94652380D01*
X75261904Y-94604761D01*
X75214285Y-94557142D01*
G04 #@! TO.C,R4*
X83852380Y-84366666D02*
X83376190Y-84700000D01*
X83852380Y-84938095D02*
X82852380Y-84938095D01*
X82852380Y-84557142D01*
X82900000Y-84461904D01*
X82947619Y-84414285D01*
X83042857Y-84366666D01*
X83185714Y-84366666D01*
X83280952Y-84414285D01*
X83328571Y-84461904D01*
X83376190Y-84557142D01*
X83376190Y-84938095D01*
X83185714Y-83509523D02*
X83852380Y-83509523D01*
X82804761Y-83747619D02*
X83519047Y-83985714D01*
X83519047Y-83366666D01*
G04 #@! TO.C,R3*
X71652380Y-96866666D02*
X71176190Y-97200000D01*
X71652380Y-97438095D02*
X70652380Y-97438095D01*
X70652380Y-97057142D01*
X70700000Y-96961904D01*
X70747619Y-96914285D01*
X70842857Y-96866666D01*
X70985714Y-96866666D01*
X71080952Y-96914285D01*
X71128571Y-96961904D01*
X71176190Y-97057142D01*
X71176190Y-97438095D01*
X70652380Y-96533333D02*
X70652380Y-95914285D01*
X71033333Y-96247619D01*
X71033333Y-96104761D01*
X71080952Y-96009523D01*
X71128571Y-95961904D01*
X71223809Y-95914285D01*
X71461904Y-95914285D01*
X71557142Y-95961904D01*
X71604761Y-96009523D01*
X71652380Y-96104761D01*
X71652380Y-96390476D01*
X71604761Y-96485714D01*
X71557142Y-96533333D01*
G04 #@! TO.C,R1*
X75333333Y-89152380D02*
X75000000Y-88676190D01*
X74761904Y-89152380D02*
X74761904Y-88152380D01*
X75142857Y-88152380D01*
X75238095Y-88200000D01*
X75285714Y-88247619D01*
X75333333Y-88342857D01*
X75333333Y-88485714D01*
X75285714Y-88580952D01*
X75238095Y-88628571D01*
X75142857Y-88676190D01*
X74761904Y-88676190D01*
X76285714Y-89152380D02*
X75714285Y-89152380D01*
X76000000Y-89152380D02*
X76000000Y-88152380D01*
X75904761Y-88295238D01*
X75809523Y-88390476D01*
X75714285Y-88438095D01*
G04 #@! TO.C,R2*
X83752380Y-80166666D02*
X83276190Y-80500000D01*
X83752380Y-80738095D02*
X82752380Y-80738095D01*
X82752380Y-80357142D01*
X82800000Y-80261904D01*
X82847619Y-80214285D01*
X82942857Y-80166666D01*
X83085714Y-80166666D01*
X83180952Y-80214285D01*
X83228571Y-80261904D01*
X83276190Y-80357142D01*
X83276190Y-80738095D01*
X82847619Y-79785714D02*
X82800000Y-79738095D01*
X82752380Y-79642857D01*
X82752380Y-79404761D01*
X82800000Y-79309523D01*
X82847619Y-79261904D01*
X82942857Y-79214285D01*
X83038095Y-79214285D01*
X83180952Y-79261904D01*
X83752380Y-79833333D01*
X83752380Y-79214285D01*
G04 #@! TO.C,J5*
X51666666Y-90752380D02*
X51666666Y-91466666D01*
X51619047Y-91609523D01*
X51523809Y-91704761D01*
X51380952Y-91752380D01*
X51285714Y-91752380D01*
X52619047Y-90752380D02*
X52142857Y-90752380D01*
X52095238Y-91228571D01*
X52142857Y-91180952D01*
X52238095Y-91133333D01*
X52476190Y-91133333D01*
X52571428Y-91180952D01*
X52619047Y-91228571D01*
X52666666Y-91323809D01*
X52666666Y-91561904D01*
X52619047Y-91657142D01*
X52571428Y-91704761D01*
X52476190Y-91752380D01*
X52238095Y-91752380D01*
X52142857Y-91704761D01*
X52095238Y-91657142D01*
G04 #@! TO.C,J4*
X87666666Y-86652380D02*
X87666666Y-87366666D01*
X87619047Y-87509523D01*
X87523809Y-87604761D01*
X87380952Y-87652380D01*
X87285714Y-87652380D01*
X88571428Y-86985714D02*
X88571428Y-87652380D01*
X88333333Y-86604761D02*
X88095238Y-87319047D01*
X88714285Y-87319047D01*
G04 #@! TO.C,J3*
X87666666Y-83052380D02*
X87666666Y-83766666D01*
X87619047Y-83909523D01*
X87523809Y-84004761D01*
X87380952Y-84052380D01*
X87285714Y-84052380D01*
X88047619Y-83052380D02*
X88666666Y-83052380D01*
X88333333Y-83433333D01*
X88476190Y-83433333D01*
X88571428Y-83480952D01*
X88619047Y-83528571D01*
X88666666Y-83623809D01*
X88666666Y-83861904D01*
X88619047Y-83957142D01*
X88571428Y-84004761D01*
X88476190Y-84052380D01*
X88190476Y-84052380D01*
X88095238Y-84004761D01*
X88047619Y-83957142D01*
G04 #@! TO.C,J2*
X53466666Y-78952380D02*
X53466666Y-79666666D01*
X53419047Y-79809523D01*
X53323809Y-79904761D01*
X53180952Y-79952380D01*
X53085714Y-79952380D01*
X53895238Y-79047619D02*
X53942857Y-79000000D01*
X54038095Y-78952380D01*
X54276190Y-78952380D01*
X54371428Y-79000000D01*
X54419047Y-79047619D01*
X54466666Y-79142857D01*
X54466666Y-79238095D01*
X54419047Y-79380952D01*
X53847619Y-79952380D01*
X54466666Y-79952380D01*
G04 #@! TO.C,J1*
X84666666Y-76552380D02*
X84666666Y-77266666D01*
X84619047Y-77409523D01*
X84523809Y-77504761D01*
X84380952Y-77552380D01*
X84285714Y-77552380D01*
X85666666Y-77552380D02*
X85095238Y-77552380D01*
X85380952Y-77552380D02*
X85380952Y-76552380D01*
X85285714Y-76695238D01*
X85190476Y-76790476D01*
X85095238Y-76838095D01*
G04 #@! TO.C,L1*
X78233333Y-76152380D02*
X77757142Y-76152380D01*
X77757142Y-75152380D01*
X79090476Y-76152380D02*
X78519047Y-76152380D01*
X78804761Y-76152380D02*
X78804761Y-75152380D01*
X78709523Y-75295238D01*
X78614285Y-75390476D01*
X78519047Y-75438095D01*
G04 #@! TD*
M02*
